<svg xmlns="http://www.w3.org/2000/svg" xmlns:xlink="http://www.w3.org/1999/xlink" viewBox="0,0,256,256" width="500px" height="500px" fill-rule="nonzero"><g fill="#ffffff" fill-rule="nonzero" stroke="none" stroke-width="1" stroke-linecap="butt" stroke-linejoin="miter" stroke-miterlimit="10" stroke-dasharray="" stroke-dashoffset="0" font-family="none" font-weight="none" font-size="none" text-anchor="none" style="mix-blend-mode: normal"><g transform="scale(5.12,5.12)"><path d="M25,2c-12,0 -19.15484,9.77009 -19.21484,9.87109c-0.065,0.108 -0.03845,0.24817 0.06055,0.32617c0.046,0.035 0.1003,0.05273 0.1543,0.05273c0.064,0 0.12873,-0.02427 0.17773,-0.07227c0.079,-0.079 8.06827,-8.17673 18.82227,-8.17773c10.783,0.001 18.74327,8.09773 18.82227,8.17773c0.048,0.049 0.11273,0.07227 0.17773,0.07227c0.054,0 0.1083,-0.01673 0.1543,-0.05273c0.099,-0.078 0.12555,-0.21717 0.06055,-0.32617c-0.06,-0.101 -6.21484,-9.87109 -19.21484,-9.87109zM25.00391,14.5c-2.702,0.004 -3.09861,3.96075 -3.59961,8.96875c-0.447,4.469 -1.00339,10.03125 -3.40039,10.03125c-1.902,0 -2.18944,-4.69023 -2.39844,-8.11523c-0.234,-3.844 -0.42008,-6.88477 -2.58008,-6.88477h-0.03906c-1.826,0.031 -2.16369,2.43952 -2.55469,5.22852c-0.217,1.548 -0.66773,4.77148 -1.42773,4.77148c-0.774,0 -1.14081,-1.46347 -1.50781,-3.23047c-0.366,-1.767 -0.78114,-3.76953 -2.49414,-3.76953c-1.887,0 -3.03119,3.886 -2.49219,4c0.526,0.111 2.10311,-1.87537 2.41211,-1.98437c0.239,0.334 0.47123,1.4642 0.61523,2.1582c0.422,2.037 1.0008,4.82617 3.4668,4.82617c2.499,0 2.9822,-3.45014 3.4082,-6.49414c0.148,-1.054 0.356,-2.55009 0.625,-3.24609c0.335,0.888 0.47527,3.16605 0.57227,4.74805c0.286,4.684 0.61053,9.99219 4.39453,9.99219c4.207,0 4.83662,-6.28603 5.39063,-11.83203c0.233,-2.324 0.71733,-7.16097 1.61133,-7.16797c0.891,0.007 1.37347,4.83911 1.60547,7.16211c0.555,5.548 1.18648,11.83789 5.39648,11.83789c3.782,0 4.10558,-5.30723 4.39258,-9.99023c0.097,-1.582 0.23727,-3.861 0.57227,-4.75c0.269,0.697 0.477,2.19209 0.625,3.24609c0.426,3.044 0.91016,6.49414 3.41016,6.49414c2.466,0 3.04189,-2.78917 3.46289,-4.82617c0.143,-0.694 0.37723,-1.8232 0.61523,-2.1582c0.31,0.109 1.89516,2.17837 2.41016,1.98438c0.517,-0.195 -0.60619,-4 -2.49219,-4c-1.713,0 -2.12719,2.00253 -2.49219,3.76953c-0.365,1.767 -0.72991,3.23047 -1.50391,3.23047c-0.761,0 -1.21269,-3.22248 -1.42969,-4.77148c-0.391,-2.79 -0.72869,-5.19852 -2.55469,-5.22852h-0.03906c-2.16,0 -2.34703,3.04172 -2.58203,6.88672c-0.209,3.424 -0.49453,8.11328 -2.39453,8.11328c-2.401,0 -2.95825,-5.56316 -3.40625,-10.03516c-0.5,-5.006 -0.89475,-8.96084 -3.59375,-8.96484zM6,37.77539c-0.054,0 -0.1093,0.01673 -0.1543,0.05273c-0.099,0.078 -0.12555,0.21817 -0.06055,0.32617c0.06,0.101 7.21484,9.87109 19.21484,9.87109c13,0 19.15484,-9.77009 19.21484,-9.87109c0.065,-0.109 0.03845,-0.24817 -0.06055,-0.32617c-0.046,-0.036 -0.1003,-0.05273 -0.1543,-0.05273c-0.065,0 -0.12973,0.02327 -0.17773,0.07227c-0.079,0.08 -8.03927,8.17674 -18.82227,8.17773c-10.753,-0.001 -18.74327,-8.09873 -18.82227,-8.17773c-0.049,-0.048 -0.11373,-0.07227 -0.17773,-0.07227z"></path></g></g></svg>